<?xml version="1.0" encoding="UTF-8"?>
<svg xmlns="http://www.w3.org/2000/svg" xmlns:xlink="http://www.w3.org/1999/xlink" width="64pt" height="64pt" viewBox="0 0 64 64" version="1.1">
<g id="surface8807090">
<path style=" stroke:none;fill-rule:nonzero;fill:rgb(33.333333%,34.509804%,94.117647%);fill-opacity:1;" d="M 28 10.949219 C 21.648438 10.949219 16.5 16.101562 16.5 22.449219 C 16.5 23.300781 17.148438 23.949219 18 23.949219 L 20.699219 23.949219 C 26.449219 23.949219 32.300781 23.949219 36.5 20.199219 L 36.5 20.25 C 36.699219 20.050781 36.898438 19.898438 37.050781 19.699219 C 37.601562 19.101562 38.550781 19 39.148438 19.550781 C 39.800781 20.101562 39.851562 21.101562 39.25 21.75 L 38.550781 22.449219 C 37.898438 23.101562 38.148438 24.199219 39 24.550781 C 39.5 24.75 40.050781 24.851562 40.597656 24.902344 C 41.347656 25 41.949219 25.601562 41.949219 26.402344 L 41.949219 29.800781 C 42 35.050781 38 39.601562 32.699219 40 C 26.898438 40.398438 22.050781 35.800781 22 30.050781 C 22 29.25 21.398438 28.550781 20.597656 28.5 C 19.75 28.449219 19 29.148438 19 30 C 19 37.148438 24.851562 43 32 43 C 38.949219 43 44.648438 37.550781 45 30.652344 L 45 21.5 C 45 17.898438 42.300781 14.949219 38.800781 14.550781 L 38.597656 14.25 C 37.148438 12.199219 34.75 10.949219 32.25 10.949219 Z M 32 45.5 C 23.800781 45.5 16.199219 49.949219 12.148438 57.050781 C 11.75 57.75 12 58.699219 12.699219 59.097656 C 12.949219 59.25 13.199219 59.300781 13.449219 59.300781 C 13.949219 59.300781 14.5 59.050781 14.75 58.550781 C 18.300781 52.351562 24.898438 48.5 32 48.5 C 39.101562 48.5 45.699219 52.351562 49.25 58.550781 C 49.648438 59.25 50.601562 59.5 51.300781 59.097656 C 52 58.699219 52.25 57.75 51.851562 57.050781 C 47.800781 49.949219 40.199219 45.5 32 45.5 Z M 32 45.5 "/>
</g>
</svg>
